<svg xmlns="http://www.w3.org/2000/svg" viewBox="0 0 1000 560">
  <defs><linearGradient id="g" x1="0" y1="0" x2="1" y2="1"><stop stop-color="#0f7d78"/><stop offset="1" stop-color="#6d38f5"/></linearGradient></defs>
  <rect width="1000" height="560" fill="#ffffff"/>
  <rect x="64" y="50" width="872" height="460" rx="26" fill="#f8fafc" stroke="#dbe4ef"/>
  <text x="120" y="125" font-family="Arial" font-size="38" font-weight="900" fill="#1e293b">AI Knowledge Search</text>
  <rect x="120" y="165" width="610" height="64" rx="18" fill="#fff" stroke="#dbe4ef"/>
  <text x="150" y="204" font-family="Arial" font-size="20" fill="#94a3b8">Search documents, policies, workflows...</text>
  <rect x="750" y="165" width="130" height="64" rx="18" fill="url(#g)"/>
  <text x="815" y="204" text-anchor="middle" font-family="Arial" font-size="20" font-weight="900" fill="#fff">Search</text>
  <rect x="120" y="270" width="760" height="60" rx="14" fill="#fff" stroke="#dbe4ef"/>
  <rect x="120" y="350" width="760" height="60" rx="14" fill="#fff" stroke="#dbe4ef"/>
  <rect x="120" y="430" width="760" height="60" rx="14" fill="#fff" stroke="#dbe4ef"/>
  <circle cx="160" cy="300" r="14" fill="#22c55e"/>
  <circle cx="160" cy="380" r="14" fill="#22c55e"/>
  <circle cx="160" cy="460" r="14" fill="#22c55e"/>
  <rect x="195" y="292" width="320" height="16" rx="8" fill="#cbd5e1"/>
  <rect x="195" y="372" width="450" height="16" rx="8" fill="#cbd5e1"/>
  <rect x="195" y="452" width="380" height="16" rx="8" fill="#cbd5e1"/>
</svg>
